<svg xmlns="http://www.w3.org/2000/svg" width="92" height="103" fill="none" class="styles_icon__1W1it" viewBox="0 0 92 103"><rect width="65.054" height="65.054" y="56.28" fill="#0B0B0D" rx="15" transform="rotate(-45 0 56.2798)"/><path fill="#0B733B" d="M45.7201 18.6616C50.3741 18.6616 54.7326 20.4715 58.02 23.7588L78.4458 44.1847C81.7332 47.4721 83.5431 51.8306 83.5431 56.4846C83.5431 61.1386 81.7332 65.4971 78.4458 68.7844L58.02 89.2103C54.7326 92.4977 50.3741 94.3076 45.7201 94.3076C41.0661 94.3076 36.7076 92.4977 33.4202 89.2103L12.9943 68.7844C9.70698 65.4971 7.8971 61.1386 7.8971 56.4846C7.8971 51.8306 9.70698 47.4721 12.9943 44.1847L33.4202 23.7588C36.7076 20.4715 41.0661 18.6616 45.7201 18.6616ZM45.7201 15.522C40.4751 15.522 35.1932 17.5165 31.204 21.5426L10.7781 41.9685C2.76292 49.9837 2.76292 62.9854 10.7781 71.0376L31.204 91.4635C35.2301 95.4895 40.4751 97.4841 45.7201 97.4841C50.9651 97.4841 56.247 95.4895 60.2361 91.4635L80.662 71.0376C88.6773 63.0223 88.6773 50.0207 80.662 41.9685L60.2361 21.5426C56.247 17.5165 51.002 15.522 45.7201 15.522Z"/><path fill="url(#efd50e80-2494-11ec-9622-d9f774aa8a4e)" d="M80.699 71.0378L60.2361 91.4637C52.2209 99.4789 39.2193 99.4789 31.1671 91.4637L10.7412 71.0378C4.60974 64.9064 3.16922 55.8938 6.3827 48.3957C7.37999 48.1372 8.41419 48.0264 9.48535 48.0264C16.5402 48.0264 22.2285 53.7515 22.2285 60.7695C22.2285 62.7271 21.7852 64.537 21.0096 66.1991C22.0068 65.8667 23.0411 65.682 24.1492 65.682C28.7293 65.682 32.5707 68.8216 33.6049 73.0693C33.9373 72.9955 34.2698 72.9955 34.6391 72.9955C38.185 72.9955 41.0661 75.8026 41.2138 79.3116C42.5805 78.6098 44.0949 78.2035 45.7201 78.2035C47.3453 78.2035 48.8966 78.6098 50.2263 79.3116C50.3741 75.8026 53.2551 72.9955 56.8011 72.9955C57.1335 72.9955 57.5028 73.0324 57.8353 73.0693C58.8695 68.8216 62.7109 65.682 67.291 65.682C68.3991 65.682 69.4333 65.8667 70.4306 66.1991C69.655 64.537 69.2117 62.7271 69.2117 60.7695C69.2117 53.7146 74.8999 48.0264 81.9548 48.0264C83.026 48.0264 84.0602 48.1741 85.0575 48.3957C88.271 55.8569 86.8304 64.9064 80.699 71.0378Z"/><path fill="url(#fc5775c0-2495-11ec-9622-d9f774aa8a4e)" d="M50.3002 58.4053H45.7201H41.1769L37.3355 92.7562H45.7201H54.1047L50.3002 58.4053Z"/><path fill="url(#ff969b30-2495-11ec-9622-d9f774aa8a4e)" d="M47.8994 58.4053H45.7202H43.5778L41.7679 92.7562H45.7202H49.7093L47.8994 58.4053Z"/><path fill="#fff" d="M45.7201 0.821289C43.2823 0.821289 37.3355 13.195 37.3355 18.5508C37.3355 28.0804 37.3355 56.4846 37.3355 56.4846H45.7201H54.1047C54.1047 56.4846 54.1047 28.0804 54.1047 18.5508C54.1047 13.232 48.1949 0.821289 45.7201 0.821289Z"/><path fill="#04D361" d="M50.8912 13.5273C50.5588 13.2687 49.0813 12.1606 45.7201 12.1606C42.3219 12.1606 40.8445 13.2687 40.549 13.5273C40.512 13.5642 40.4751 13.6012 40.4751 13.675V14.5985C40.4751 14.7462 40.6598 14.857 40.7706 14.7462C41.3616 14.3399 42.876 13.5642 45.7201 13.5642C48.5642 13.5642 50.0786 14.3399 50.6696 14.7462C50.8173 14.8201 50.9651 14.7462 50.9651 14.5985V13.675C50.9651 13.6381 50.9651 13.5642 50.8912 13.5273Z"/><path fill="#04D361" d="M37.3356 40.8232C37.3356 40.8232 27.2519 48.8754 26.624 60.3996C26.5871 61.0275 27.215 61.5446 27.806 61.323C30.7609 60.3996 32.7924 56.4843 37.3356 56.4843V40.8232Z"/><path fill="#04D361" d="M54.1048 40.8232C54.1048 40.8232 64.1885 48.8754 64.8164 60.3996C64.8533 61.0275 64.2254 61.5446 63.6344 61.323C60.6795 60.3996 58.648 56.4843 54.1048 56.4843V40.8232Z"/><path fill="#04D361" d="M45.7201 56.4849H37.3355L39.1454 60.3632C39.1454 60.3632 44.1318 60.8803 45.7201 60.8803C47.3084 60.8803 52.2948 60.3632 52.2948 60.3632L54.1047 56.4849H45.7201Z"/><path fill="#04D361" d="M45.7201 40.8232C44.7967 40.8232 43.6886 50.4267 43.6886 60.769C43.6886 62.3942 44.7228 64.0194 45.7201 64.0194C46.7543 64.0194 47.7516 62.3942 47.7516 60.769C47.7886 50.4267 46.6435 40.8232 45.7201 40.8232Z"/><defs><radialGradient id="efd50e80-2494-11ec-9622-d9f774aa8a4e" cx="0" cy="0" r="1" gradientTransform="translate(45.6155 56.1885) scale(52.8728)" gradientUnits="userSpaceOnUse"><stop stop-color="#68E5A0"/><stop offset=".006" stop-color="#04D361"/><stop offset=".584" stop-color="#04D361" stop-opacity="0"/></radialGradient><linearGradient id="fc5775c0-2495-11ec-9622-d9f774aa8a4e" x1="45.728" x2="45.728" y1="58.411" y2="103.437" gradientUnits="userSpaceOnUse"><stop stop-color="#06B656"/><stop offset=".38" stop-color="#08994A" stop-opacity="0"/></linearGradient><linearGradient id="ff969b30-2495-11ec-9622-d9f774aa8a4e" x1="45.728" x2="45.728" y1="58.411" y2="103.437" gradientUnits="userSpaceOnUse"><stop stop-color="#06B656"/><stop offset=".463" stop-color="#08994A" stop-opacity="0"/></linearGradient></defs></svg>